<?xml version="1.0" standalone="no"?>
<!DOCTYPE svg PUBLIC "-//W3C//DTD SVG 20010904//EN" "http://www.w3.org/TR/2001/REC-SVG-20010904/DTD/svg10.dtd">
<svg xmlns="http://www.w3.org/2000/svg" version="1.0" width="500" height="345" viewBox="0 0 500.000000 345.000000" preserveAspectRatio="xMidYMid meet">

<g transform="translate(0.000000,345.000000) scale(0.100000,-0.100000)" fill="#fff" stroke="none">
<path d="M480 1740 l0 -550 555 0 555 0 0 550 0 550 -555 0 -555 0 0 -550z m543 265 c14 -6 17 -20 17 -71 l0 -64 -33 0 c-28 0 -38 7 -58 37 -42 66 -116 70 -93 6 9 -25 113 -101 142 -102 7 -1 29 10 50 23 59 39 120 50 197 36 72 -14 79 -23 73 -96 -3 -36 -6 -39 -35 -42 -27 -3 -38 3 -64 33 -28 32 -37 36 -73 33 -54 -4 -86 -49 -86 -120 0 -129 69 -176 191 -128 39 16 54 18 65 9 23 -19 16 -32 -37 -72 -58 -44 -125 -57 -197 -38 -50 14 -114 68 -132 111 -12 28 -15 30 -71 30 -32 0 -81 5 -109 11 l-50 11 0 64 0 64 31 0 c25 0 41 -10 74 -46 35 -37 48 -45 71 -42 21 2 30 9 32 26 5 31 -7 43 -88 91 -120 72 -141 127 -72 193 20 19 46 41 57 47 21 12 164 9 198 -4z"/>
<path d="M1875 2252 c-45 -28 -85 -80 -85 -109 0 -33 39 -68 130 -118 79 -44 97 -66 81 -107 -22 -57 -119 -51 -172 12 -14 16 -29 30 -32 30 -12 0 -8 -88 5 -96 6 -4 44 -9 85 -12 67 -4 77 -2 113 22 23 15 48 43 58 62 24 52 5 78 -103 140 -115 66 -134 108 -71 150 35 22 71 12 119 -37 22 -21 41 -39 43 -39 2 0 4 22 4 49 0 55 3 53 -100 66 -34 4 -52 1 -75 -13z"/>
<path d="M2150 2199 c0 -33 4 -58 9 -55 5 4 22 26 38 51 24 38 33 45 61 45 18 0 32 -5 33 -12 0 -7 0 -83 -1 -168 -1 -143 -3 -157 -22 -177 l-21 -23 76 0 c42 0 77 2 77 5 0 3 -11 10 -25 15 l-25 10 0 175 0 175 35 0 c31 0 39 -6 67 -50 18 -27 36 -50 41 -50 4 0 7 27 7 60 l0 60 -175 0 -175 0 0 -61z"/>
<path d="M2687 2248 c-9 -7 -48 -85 -87 -172 -38 -88 -82 -172 -97 -188 l-27 -28 67 0 c37 0 70 0 74 -1 4 0 9 4 11 9 1 5 -16 14 -38 21 -22 6 -40 15 -40 19 1 4 11 27 23 52 l22 45 88 0 88 0 21 -48 21 -48 -23 -24 -23 -25 76 0 c79 0 95 8 54 27 -18 9 -41 52 -98 192 -41 99 -79 181 -85 181 -5 0 -18 -6 -27 -12z m33 -118 c50 -119 53 -110 -40 -110 -45 0 -80 4 -78 8 49 120 74 172 81 169 5 -1 21 -32 37 -67z"/>
<path d="M2965 2250 c-3 -6 5 -14 19 -20 l26 -10 0 -160 c0 -159 0 -160 -25 -176 -37 -24 -22 -34 55 -34 73 0 98 14 55 30 l-25 10 2 167 3 168 44 3 c34 3 49 -2 67 -19 29 -27 39 -71 23 -101 -16 -31 -28 -38 -66 -38 -18 0 -33 -2 -33 -3 0 -4 101 -161 125 -194 12 -17 26 -23 55 -23 50 0 59 15 21 34 -16 9 -45 42 -66 76 -20 33 -45 66 -56 74 -19 13 -18 14 11 26 40 16 80 65 80 96 0 37 -25 78 -55 92 -32 15 -251 16 -260 2z"/>
<path d="M3390 2231 c0 -16 -3 -43 -6 -60 -9 -46 9 -38 46 19 28 44 36 50 66 50 l34 0 0 -169 c0 -163 -1 -170 -22 -185 -30 -21 -20 -27 49 -31 70 -5 102 8 60 24 l-27 11 0 175 0 175 34 0 c30 0 38 -6 66 -50 18 -27 36 -50 41 -50 5 0 9 27 8 60 l-2 60 -173 0 -174 0 0 -29z"/>
<path d="M3805 2250 c-3 -5 6 -12 20 -16 30 -7 28 0 25 -140 -2 -94 1 -119 18 -157 51 -115 204 -119 279 -8 21 31 23 46 23 157 0 121 1 124 25 140 38 25 30 34 -29 34 -62 0 -80 -14 -42 -32 26 -11 26 -13 26 -125 0 -127 -11 -167 -56 -202 -22 -18 -38 -22 -67 -18 -92 12 -117 59 -117 216 0 107 1 111 25 127 14 9 25 20 25 25 0 12 -147 11 -155 -1z"/>
<path d="M4275 2250 c-3 -5 6 -12 20 -16 l25 -6 0 -163 c0 -149 -2 -163 -20 -180 -11 -10 -20 -22 -20 -27 0 -5 39 -7 88 -6 91 3 111 16 48 31 l-36 9 0 163 c0 181 -3 175 71 175 59 0 89 -34 89 -99 0 -59 -22 -81 -83 -81 -47 0 -47 -23 1 -28 66 -7 152 66 152 128 0 35 -35 89 -66 100 -33 13 -261 13 -269 0z"/>
<path d="M4250 1578 c-46 -25 -90 -78 -90 -109 0 -29 46 -75 120 -120 83 -52 104 -89 65 -115 -21 -14 -27 -14 -52 -1 -15 9 -42 31 -59 50 -23 27 -37 34 -53 30 -18 -5 -21 -13 -21 -59 0 -29 5 -56 11 -60 6 -4 50 -9 98 -12 67 -3 94 -1 118 11 40 21 93 83 93 109 0 27 -60 84 -137 130 -70 41 -91 80 -58 105 28 20 35 17 82 -32 28 -30 51 -45 68 -45 24 0 25 3 25 59 0 58 0 59 -32 65 -109 19 -132 18 -178 -6z"/>
<path d="M1895 1571 c-73 -34 -145 -130 -145 -193 0 -73 54 -158 117 -184 18 -8 64 -14 102 -14 66 0 72 2 121 41 41 32 49 43 40 54 -10 12 -19 11 -61 -5 -125 -50 -199 -1 -199 130 0 86 34 130 102 130 26 0 42 -9 68 -35 19 -20 44 -35 57 -35 21 0 23 4 23 55 0 50 -2 56 -26 65 -43 17 -155 12 -199 -9z"/>
<path d="M2384 1579 c-27 -8 -36 -20 -71 -101 -22 -51 -50 -120 -63 -153 -13 -34 -36 -70 -52 -83 -49 -41 -38 -52 51 -52 58 0 82 4 91 15 15 18 15 17 -27 39 -37 19 -36 16 -23 50 9 25 13 26 90 26 77 0 81 -1 90 -26 15 -39 12 -48 -20 -66 -54 -31 -37 -39 77 -36 89 2 108 6 111 19 1 8 -8 20 -20 26 -18 8 -37 43 -75 139 -97 242 -84 225 -159 203z m25 -138 c11 -32 21 -63 21 -70 0 -7 -20 -11 -55 -11 -30 0 -55 2 -55 5 0 14 53 135 60 135 4 0 17 -26 29 -59z"/>
<path d="M2681 1571 c-10 -18 -8 -23 14 -33 25 -11 25 -11 25 -148 0 -133 -1 -137 -25 -158 -41 -36 -32 -43 47 -40 58 2 73 6 76 19 2 11 -6 19 -22 23 l-26 6 0 122 c0 67 4 118 8 113 5 -6 35 -72 67 -148 55 -128 60 -138 84 -135 22 3 31 19 81 140 31 76 59 141 63 145 4 3 7 -45 7 -109 0 -110 -1 -115 -25 -136 -14 -12 -25 -26 -25 -31 0 -5 41 -12 92 -16 82 -7 93 -5 105 11 14 20 8 30 -22 36 -19 3 -20 12 -23 144 l-3 141 26 17 c14 9 25 25 25 36 0 18 -7 20 -75 20 -89 0 -84 5 -145 -150 -23 -58 -45 -109 -49 -113 -4 -4 -32 50 -61 120 -29 70 -54 129 -54 130 -1 1 -36 5 -78 9 -71 6 -77 5 -87 -15z"/>
<path d="M3290 1576 c-16 -16 -12 -26 15 -36 l25 -10 0 -138 c0 -135 -1 -139 -25 -160 -44 -38 -33 -43 93 -40 95 2 117 6 117 18 0 9 -16 17 -43 23 l-43 8 3 147 c3 146 3 147 27 150 65 10 102 -37 85 -106 -7 -28 -16 -39 -39 -47 -43 -14 -58 -38 -31 -48 30 -12 100 17 142 58 58 55 60 97 10 153 l-34 37 -146 0 c-84 1 -150 -3 -156 -9z"/>
<path d="M3685 1574 c-13 -14 -14 -19 -3 -25 7 -5 21 -9 31 -9 15 0 17 -13 17 -123 0 -100 3 -129 19 -157 56 -106 238 -107 302 -3 20 33 24 54 27 148 4 101 6 112 29 137 14 14 22 31 19 37 -4 6 -36 11 -71 11 -54 0 -66 -3 -75 -20 -10 -18 -7 -22 19 -31 l31 -11 0 -113 c0 -97 -3 -116 -20 -138 -39 -49 -114 -52 -156 -6 -16 17 -20 40 -22 132 -4 111 -4 111 24 133 17 14 25 28 21 38 -9 24 -168 23 -192 0z"/>
</g>
</svg>